# xmcd CD database file
#
# Track frame offsets:
#	150
#	13581
#	31644
#	49610
#	64816
#	85543
#	111422
#	132251
#	155218
#	175002
#	200065
#	240993
#	261240
#
# Disc length: 3784 seconds
#
# Revision: 0
# Processed by: cddbd v1.5.1PL2 Copyright (c) Steve Scherf et al.
# Submitted via: CDex 1.51
#
DISCID=a70ec60d
DTITLE=Ludwig Seuss and Friends - Live
DYEAR=2003
DGENRE=Jazz
TTITLE0=Surfin' Fats
TTITLE1=Cher Catin
TTITLE2=Tell me what's the Matter
TTITLE3=You used to call me
TTITLE4=Get on the right Track
TTITLE5=Junko Partner
TTITLE6=Big Nick
TTITLE7=Goin' Home tomorrow
TTITLE8=Don't you just know me
TTITLE9=Please son't leave me
TTITLE10=I'm gonna move to the Outskirts of Town
TTITLE11=Too much Boogie
TTITLE12=You 're always on my Mind
EXTD=YEAR: 2003
EXTT0=
EXTT1=
EXTT2=
EXTT3=
EXTT4=
EXTT5=
EXTT6=
EXTT7=
EXTT8=
EXTT9=
EXTT10=
EXTT11=
EXTT12=
PLAYORDER=
